PathFileType	4	(X/Y/Z)	Kaydara	
DataRate	CameraRate	NumFrames	NumMarkers	Units	OrigDataRate	OrigDataStartFrame	OrigNumFrames	
240.00	240.00	4	72	mm	240.00	90	359	
Frame#	Time	Hips			RightUpLeg			RightLeg			RightFoot			RightFoot_End			LeftUpLeg			LeftLeg			LeftFoot			LeftFoot_End			Spine			Spine1			Spine2			Spine3			Neck			Head			Head_End			RightShoulder			RightArm			RightForeArm			RightHand			RightHandThumb1			RightHandThumb2			RightHandThumb3			RightHandThumb3_End			RightInHandIndex			RightHandIndex1			RightHandIndex2			RightHandIndex3			RightHandIndex3_End			RightInHandMiddle			RightHandMiddle1			RightHandMiddle2			RightHandMiddle3			RightHandMiddle3_End			RightInHandRing			RightHandRing1			RightHandRing2			RightHandRing3			RightHandRing3_End			RightInHandPinky			RightHandPinky1			RightHandPinky2			RightHandPinky3			RightHandPinky3_End			LeftShoulder			LeftArm			LeftForeArm			LeftHand			LeftHandThumb1			LeftHandThumb2			LeftHandThumb3			LeftHandThumb3_End			LeftInHandIndex			LeftHandIndex1			LeftHandIndex2			LeftHandIndex3			LeftHandIndex3_End			LeftInHandMiddle			LeftHandMiddle1			LeftHandMiddle2			LeftHandMiddle3			LeftHandMiddle3_End			LeftInHandRing			LeftHandRing1			LeftHandRing2			LeftHandRing3			LeftHandRing3_End			LeftInHandPinky			LeftHandPinky1			LeftHandPinky2			LeftHandPinky3			LeftHandPinky3_End			
		X1	Y1	Z1	X2	Y2	Z2	X3	Y3	Z3	X4	Y4	Z4	X5	Y5	Z5	X6	Y6	Z6	X7	Y7	Z7	X8	Y8	Z8	X9	Y9	Z9	X10	Y10	Z10	X11	Y11	Z11	X12	Y12	Z12	X13	Y13	Z13	X14	Y14	Z14	X15	Y15	Z15	X16	Y16	Z16	X17	Y17	Z17	X18	Y18	Z18	X19	Y19	Z19	X20	Y20	Z20	X21	Y21	Z21	X22	Y22	Z22	X23	Y23	Z23	X24	Y24	Z24	X25	Y25	Z25	X26	Y26	Z26	X27	Y27	Z27	X28	Y28	Z28	X29	Y29	Z29	X30	Y30	Z30	X31	Y31	Z31	X32	Y32	Z32	X33	Y33	Z33	X34	Y34	Z34	X35	Y35	Z35	X36	Y36	Z36	X37	Y37	Z37	X38	Y38	Z38	X39	Y39	Z39	X40	Y40	Z40	X41	Y41	Z41	X42	Y42	Z42	X43	Y43	Z43	X44	Y44	Z44	X45	Y45	Z45	X46	Y46	Z46	X47	Y47	Z47	X48	Y48	Z48	X49	Y49	Z49	X50	Y50	Z50	X51	Y51	Z51	X52	Y52	Z52	X53	Y53	Z53	X54	Y54	Z54	X55	Y55	Z55	X56	Y56	Z56	X57	Y57	Z57	X58	Y58	Z58	X59	Y59	Z59	X60	Y60	Z60	X61	Y61	Z61	X62	Y62	Z62	X63	Y63	Z63	X64	Y64	Z64	X65	Y65	Z65	X66	Y66	Z66	X67	Y67	Z67	X68	Y68	Z68	X69	Y69	Z69	X70	Y70	Z70	X71	Y71	Z71	X72	Y72	Z72	

90	0.371	7198.941	914.58397	126.699	7255.1525967521675	898.055096204182	53.409472568838375	7160.329019107025	501.22936742324976	-41.744388308369224	7141.718415827516	109.71168256745783	-117.20043661183234	6990.0353219075205	32.945078078330575	-29.80852303158163	7157.283355770637	905.0183327453861	211.23502999059858	7066.022298498596	503.19823318582786	286.2422888286544	6994.188293157099	78.87735809709152	378.227643473371	6872.505759542101	-3.4118673855541592	255.91211698632264	7131.153548991737	1031.678150879278	79.79892679180308	7068.805013962507	1087.9363289136418	30.886674375540977	7001.033155350422	1139.4074995930332	-23.874070921915582	6932.624499850802	1176.9607515835721	-81.70798139811706	6858.414537864805	1217.5877128570282	-141.81479218427282	6789.162117031748	1254.9368089420213	-193.9284675998627	6649.61944440458	1332.0607533862114	-200.5979853416304	6904.069253183257	1206.124942953712	-146.0844333882346	6967.022031610158	1198.436410108167	-262.7942538537819	7051.28760600327	936.0103969161636	-303.0531185743816	7063.638880984168	804.7212180855936	-518.4350066465439	7070.814205211513	816.548847613337	-547.501979661635	7054.016694767722	820.5829489158867	-576.6856485627849	7042.158194995397	820.1577943362026	-596.8621839098398	7032.134793339985	817.0363281847925	-613.5567533352564	7073.4273319461945	805.8924266913534	-550.1082997574268	7076.8286868026	796.3209393909683	-595.949662761873	7065.6767099814915	790.4440608490338	-625.3597805780091	7051.189912857407	790.5982163509904	-638.8393484187527	7034.10404546327	793.2942940956946	-646.7554660822951	7072.22926048722	797.4655019444788	-547.9946054903161	7074.902657959006	783.5714109749714	-591.56430258856	7062.54763301242	776.0786780625732	-623.2258917842813	7044.980565662277	775.7464664161558	-639.2817961570655	7026.242125446179	778.4445547104721	-647.8429766953263	7071.43292483199	791.7251201903649	-545.3649355683646	7073.538072028115	774.1994488561421	-582.2272177011425	7062.573544692975	766.5872402585342	-609.3143188581303	7045.524695665744	765.6924574379693	-624.531058300314	7027.856538144038	767.9571767074546	-632.4525569030126	7069.338130949758	785.6305906454511	-540.7424854765344	7070.437985948591	765.6917528743295	-571.8296854111848	7061.342273572661	757.985547118288	-592.5645359774555	7048.7540448427635	756.5537732278722	-603.2014821258637	7033.015033475579	758.1115582982023	-609.95263546045	6861.9378622821605	1202.2060893180098	-96.41037083550654	6809.342381123031	1133.917534493416	5.200477964880232	6951.197355749844	978.1795068089717	-177.61401608213697	7053.886440657779	867.8593302678153	-401.5942327575483	7083.456808997859	878.7290680846021	-420.9251450280924	7122.993820641959	869.9897319465997	-429.94222177162214	7149.605058539803	860.7591896352279	-437.0797231458223	7171.00065768692	850.3740805482593	-443.7639522610925	7082.05077982675	869.5336141101089	-427.4931519673895	7125.193532916863	855.7543103766999	-462.81270609636834	7159.557839713263	840.399987026616	-478.21113881869	7180.708612763443	831.3203069909086	-479.3055479387951	7198.071086253893	824.1194536260948	-474.4921832706676	7078.246883150785	861.1867414048319	-428.1611098093013	7118.268261135822	843.2336412397569	-462.9746585646793	7155.130121191825	825.415163322617	-479.7395152405537	7180.342342303706	813.9503508971129	-481.0416672819081	7199.191561890334	805.8231353974126	-475.7661149841351	7074.416971765065	855.6765452197745	-427.8375784185517	7106.837983476371	834.9068464646019	-459.0663240522964	7138.253804525347	818.31672833006	-473.58386786582537	7162.194288097926	806.6953718274073	-474.7895507476759	7179.737842339075	798.7871216578402	-469.80533254333534	7069.0800154177705	849.4473143049669	-425.6075537595109	7095.400756873525	826.6709794660226	-453.24217559954093	7119.303768129245	811.8236546638983	-464.5824664264878	7136.159640594981	802.5911201213811	-465.3241204060476	7151.351375240982	795.1506838751186	-460.8296196462049
91	0.375	7198.941	914.58397	126.699	7255.137043085074	898.0391547342696	53.40566273961625	7160.306385690128	501.21937610065504	-41.76480073559583	7141.7080738960385	109.7020780167629	-117.22295951802333	6990.027462288876	32.93742339041452	-29.825042519609298	7157.295467474947	905.0327125037483	211.23928402072272	7066.027578078547	503.2120364418568	286.23437622270205	6994.167966869097	78.89154147672438	378.1957287854731	6872.487339545173	-3.3978173812468238	255.87841588938926	7131.169598838136	1031.685901802116	79.79716486160802	7068.833396936232	1087.9481113657214	30.874814573096202	7001.075766011551	1139.4250331306018	-23.89739041074405	6932.682645489973	1176.9876138006214	-81.74356192818581	6858.4883493769485	1217.6237697002107	-141.863418738274	6789.249735876093	1254.9813124401771	-193.98917474209912	6649.709963290972	1332.1033528406774	-200.68845910516893	6904.127247677593	1206.1353043304016	-146.12245762264652	6967.022842733688	1198.324463915509	-262.7414600223443	7051.085432113003	936.0640492379803	-302.7203101227885	7063.31565454706	804.9395812069879	-517.9331707636782	7070.4823753600995	816.8118462036226	-546.9325371690755	7053.719011970101	820.8837883268985	-576.0755995882167	7041.885574644858	820.4823559079651	-596.2308078774574	7031.88416354429	817.3784158398591	-612.91354449705	7073.095230857429	806.1506593580422	-549.556066697503	7076.505447011398	796.6278917730015	-595.3527149125279	7065.381425227803	790.7818868339896	-624.7397615279499	7050.922235211633	790.9519350197653	-638.2072096666914	7033.8661169535735	793.6589402390965	-646.1147957981664	7071.901374597469	797.7147411653818	-547.4632176012865	7074.585688907684	783.8633062350218	-591.0005741077193	7062.261723127233	776.402914076049	-622.6398935893525	7044.7282289259565	776.0892292645888	-638.6825702952742	7026.022469066891	778.798959603798	-647.2350936123769	7071.107579765076	791.9667855579331	-544.849370678287	7073.224098637227	774.4728359909282	-581.6962726011423	7062.287194636765	766.8873699459725	-608.7669846456905	7045.271022770265	766.0096899360957	-623.9725694137951	7027.63373196637	768.2849918206738	-631.8866883582166	7069.0171205028155	785.8619319323072	-540.246808614305	7070.129372368276	765.9459182560902	-571.3319968482724	7061.056592956481	758.2587328726614	-592.0585045100547	7048.492592466363	756.8382757551852	-602.6896270648759	7032.7811503927705	758.4047688053448	-609.4355742068232	6862.017531805097	1202.2621926780573	-96.46130364709174	6809.440857987095	1134.1343101549705	5.138613992549021	6951.038795414811	978.3406277146523	-177.44114249994766	7053.507851205504	867.9914937526814	-401.17771381380373	7083.029589671582	878.8524081088473	-420.46259881269725	7122.508889121398	870.0943896464039	-429.4773473999069	7149.081489654089	860.8524934112316	-436.61649309595845	7170.44620741645	850.4593361081363	-443.30488670530474	7081.625267881644	869.6635269722814	-427.0339416230949	7124.699470011701	855.8806712322142	-462.3183282849336	7159.012864462052	840.5161605086884	-477.71444315274465	7180.134278562818	831.4248382245995	-478.81964102854994	7197.473998515345	824.2107676427861	-474.0234555494	7077.827829768567	861.3209164632647	-427.7130586342291	7117.785839559356	843.3666593960276	-462.49833577428143	7154.593214657346	825.5376293117862	-479.26227739292835	7179.770529010449	814.0590416966943	-480.5782202996146	7198.595101857459	805.9174957827792	-475.32184174393166	7074.004259750231	855.8139106152458	-427.39809799849684	7106.374070767828	835.0462033306989	-458.60833046486573	7137.743596279315	818.4474654615273	-473.12677344159255	7161.65104346224	806.8131284210355	-474.34665979089306	7179.171723978514	798.891549392452	-469.38089675096626	7068.67636906108	849.5877627537408	-425.1806295874551	7094.955813944159	826.81545086959	-452.8052940648382	7118.823838890378	811.9621154710852	-464.1490343044601	7135.656623278017	802.720544246043	-464.9023686389082	7150.828676108626	795.2685490666861	-460.4249760063949
92	0.379	7198.941	914.58397	126.699	7255.1209610862825	898.0226592609552	53.40173125275721	7160.283133385996	501.20895231175734	-41.78571522554444	7141.697871526357	109.69206630040514	-117.24613908275002	6990.019759768563	32.929334847205375	-29.84221193974538	7157.308050476216	905.047639184553	211.24370730327536	7066.0333737073615	503.22633464815493	286.2263938217398	6994.147766436029	78.9061465534507	378.1629182347385	6872.469099595676	-3.3834002747748215	255.8438026999454	7131.185926819571	1031.6937108285997	79.79519797961146	7068.862119304224	1087.9599012199853	30.862622380497037	7001.118751023555	1139.4425244161737	-23.92112807146035	6932.74114747365	1177.0144189555856	-81.77955004634927	6858.56250259558	1217.6597510292802	-141.91244831238845	6789.337703846247	1255.0257472824792	-194.05029000177908	6649.801112560638	1332.1462234724358	-200.7799203451608	6904.185171908612	1206.1448976118972	-146.16086000417846	6967.0210848183915	1198.2086942947244	-262.6877315333703	7050.876338210957	936.1175624410139	-302.3787777870457	7062.981340613162	805.1568548504944	-517.4102666811816	7070.138984521996	817.0733590804559	-546.3406997291501	7053.410287577968	821.182606848418	-575.4414680366716	7041.602273490459	820.8045317885994	-595.5741197508289	7031.623152938282	817.717820438529	-612.2439521583162	7072.7514112999725	806.4074080983848	-548.9811157518878	7076.170000799646	796.932744058051	-594.7303558951623	7065.074186134327	791.1171313703469	-624.092493015401	7050.643123308943	791.302785516298	-637.5469515082841	7033.617429760009	794.020489342822	-645.4454701507091	7071.561812858182	797.9625368814619	-546.9090597216428	7074.256590957196	784.1531788749791	-590.411420496029	7061.963967358329	776.7246094855802	-622.0264662243757	7044.464677580644	776.429109074696	-638.054866623771	7025.792339132076	779.1502327314073	-646.5981467308342	7070.770595300096	792.207052164859	-544.3110664580371	7072.898093589763	774.7443455570368	-581.1402315765998	7061.989068503794	767.185178922697	-608.1928139271042	7045.006187441065	766.3242758446164	-623.3862357895673	7027.400462373188	768.6099285755345	-631.292425646031	7068.684574944148	786.0919402350571	-539.7285156794173	7069.808907529373	766.1983533982948	-570.8096016628056	7060.759281385118	758.5298486234874	-591.5263925019076	7048.2199642964	757.1204778798652	-602.1509656691343	7032.536715088289	758.6954778006665	-608.8912254462192	6862.097983252851	1202.3189430389587	-96.51267778832882	6809.541612531783	1134.355653468347	5.076640595906009	6950.878659230501	978.5037424878572	-177.25974178756644	7053.120997662988	868.1216466911933	-400.74448907863314	7082.592472960816	878.9735036452305	-419.9829452218276	7122.012250015642	870.1968136393269	-428.99541938163503	7148.544999465641	860.9435559512929	-436.1361474841824	7169.877864146667	850.5423312915677	-442.82856899539456	7081.189881987839	869.7910852163233	-426.55714128684383	7124.193224519313	856.0042464204452	-461.805029211322	7158.454072576036	840.6294340433625	-477.19837888829784	7179.545237699188	831.5265460842207	-478.31453460476814	7196.861552333277	824.2994212402755	-473.53596991236464	7077.399109064253	861.4527198343995	-427.24721640763426	7117.291610656446	843.4968761469247	-462.00281456149617	7154.042752443586	825.6571685709927	-478.7653313771769	7179.184102912251	814.1648978513073	-480.0952587740912	7197.983323953112	806.0091996804157	-474.85853210751134	7073.582085433859	855.9489011941848	-426.9407126712821	7105.898956228264	835.1827914956963	-458.13105494226147	7137.2207011880155	818.5753247228888	-472.6499329772621	7161.09411293504	806.9280960021182	-473.8841990421449	7178.591266565142	798.9933556437303	-468.9373357613857	7068.263562590627	849.7258615703619	-424.7357533763458	7094.500301390213	826.9572198150422	-452.3491486113662	7118.332219088098	812.0977882348575	-463.6959417699191	7135.141219682539	802.8472460270843	-464.46107299183484	7150.293031091222	795.3838408287548	-460.0011754056359
93	0.383	7198.941	914.58397	126.699	7255.104351295049	898.0056103044149	53.39767826885517	7160.259262988719	501.19809630005125	-41.80713076936207	7141.687809448832	109.68164764532769	-117.26997422559567	6990.012214949442	32.9208125309668	-29.86003055903971	7157.321104401605	905.0631123626786	211.24829969753662	7066.039685534157	503.24112737673033	286.21834214406806	6994.127693182571	78.92117284237621	378.1292131900872	6872.451040947052	-3.368616579711367	255.8082788766836	7131.202532169644	1031.7015775084612	79.79302604843258	7068.891179575082	1087.971697684384	30.85009818190487	7001.162108053113	1139.4599722222467	-23.945282927654997	6932.800002553493	1177.0411652398561	-81.81594407744292	6858.636993353386	1217.6956544595403	-141.96187849360197	6789.426015981205	1255.0701105712737	-194.11181029317856	6649.8928873139685	1332.1893627011675	-200.87236484427814	6904.243022310277	1206.1537214820946	-146.19963861737992	6967.016755856947	1198.0891053880127	-262.6330703105938	7050.66033309364	936.1709356149452	-302.02853428424464	7062.635952943217	805.373031237454	-516.8663091854928	7069.784046982247	817.3333766681426	-545.7264840377832	7053.090535095978	821.4793928890407	-574.7832715490702	7041.308304396979	821.1243090635985	-594.8921375467243	7031.351773770826	818.0545280322654	-611.5479944076994	7072.395887370055	806.6626634794246	-548.3834628123028	7075.822361947886	797.2354845036498	-594.0826021035662	7064.755005681303	791.4497810093764	-623.4179916105767	7050.352589416373	791.650753390218	-636.8585907194436	7033.357995413819	794.3789261673353	-644.7475061508572	7071.2105890867515	798.2088799547577	-546.3321469497441	7073.915377466365	784.4410176638492	-589.7968569124703	7061.65437815475	777.0437512445927	-621.3856249343206	7044.189923197412	776.7660916136759	-637.3987005845745	7025.551746399199	779.4983590078078	-645.9321517250212	7070.421985070701	792.4459111416058	-543.7500374326655	7072.560069964122	775.0139670453076	-580.5591087092515	7061.679178542863	767.4806551476829	-607.5918207500779	7044.730201060615	766.636202005168	-622.772071607533	7027.156739972746	768.9319730246643	-630.6697831373604	7068.340507663801	786.3206070519908	-539.1876205215177	7069.476604179825	766.4490485249987	-570.2625128816403	7060.450350887428	758.7988834542464	-590.9682127845372	7047.936171703332	757.4003679120451	-601.5855107852802	7032.281738231516	758.9836729193322	-608.3196021476807	6862.17921245413	1202.3763373132476	-96.56449082695568	6809.644640555209	1134.5815548337055	5.014560428132249	6950.716956297832	978.6688446900562	-177.06981764823655	7052.725896756327	868.2497844029759	-400.29457174399585	7082.145476911195	879.0923512997118	-419.4861987755014	7121.503922739145	870.2970020706554	-428.49645220704025	7147.995608295909	861.0323763161433	-435.6387006738651	7169.295648915577	850.6230657885351	-442.33501329818415	7080.744640148692	869.916284946393	-426.0627653454195	7123.6748162129525	856.125032918003	-461.2728241518403	7157.8814850470835	840.7398055277299	-476.6629612511488	7178.941511815197	831.6254292709347	-477.79024351176577	7196.233769816923	824.3854139416196	-473.0297406519851	7076.960738853179	861.5821471811527	-426.76359716487644	7116.785593867045	843.6242877675705	-461.4881096394028	7153.478755289683	825.7737783191269	-478.2486918011739	7178.58308551872	814.2679175208174	-479.5927968289302	7197.356250190301	806.098246135338	-474.37619958290975	7073.150466453474	856.0815122814755	-426.4654362075695	7105.412658797359	835.316606527906	-457.6345116511195	7136.685139289698	818.7003024421274	-472.15336049543737	7160.523517279807	807.0402717728705	-473.40218202911217	7177.996491327253	799.0925384303216	-468.4746625103232	7067.84161338628	849.861605696596	-424.2729385165106	7094.034237628228	827.0962812179796	-451.8737527795291	7117.828927960221	812.2306683799366	-463.22320216450913	7134.6134495470915	802.9712214789096	-464.0002464051185	7149.7444603228	795.4965558713395	-459.55823023662197
